<svg id="Layer_1" data-name="Layer 1" xmlns="http://www.w3.org/2000/svg" viewBox="0 0 988.6 960.09"><defs><style>.cls-1{fill:#ee392f;}.cls-2{fill-rule:evenodd;}</style></defs><path d="M451.32,74.4c-33.13,0-60,27.77-60,62V440h0a233.1,233.1,0,0,0-114-29.6C148,410.35,43.17,515.15,43.17,644.43S148,878.52,277.26,878.52C406.35,878.52,511,774,511.35,645V136.42C511.35,102.17,484.47,74.4,451.32,74.4ZM278.6,770.74A125.72,125.72,0,1,1,404.32,645,125.71,125.71,0,0,1,278.6,770.74Z"/><path class="cls-1" d="M216,694.63h0c-11.08-.79-18.59,4.36-21.54,14.76-2.68,9.44,2.19,20.05,11.17,24.38,9.31,4.48,18.06,2,25.38-7.15C240.93,711.75,233.76,696.45,216,694.63Z"/><path class="cls-1" d="M344.72,642h0l-8.35-1.14L330,639.71h0c-12.19-5.13-16.66-15-17-27.49l1.65-6.24,5.64-8.62h0l3.46-2.71h0c5-2.45,10.09-4.81,15.68-5.74h0c3.39,0,5.84-1.7,7.89-4.19h0c9.55-8,11.22-17.13,4.92-27-5.84-9.15-15-12-24.67-7.81-5.35,1-9.27,3.79-11,9.16a17.87,17.87,0,0,0-2.81,12.44c.31,6-1.91,11.44-4.28,16.8l-6.08,6.48h0l-3.73,2.48h0l-2,.47c-2.42-.15-4.72.07-6.45,2.09h0L285.74,601a3.66,3.66,0,0,0-4,2.13,9.48,9.48,0,0,0-7.07,6.79c-1.6,1.85-2.59,3.84-1.49,6.33-3,4.44-.91,9.39-1.39,14.09l-3.61,8.59c-1.7,2-3.39,4-5.09,6h0L251,650.61h0l-5.09,1.07h0c-3.66-.44-6.09,1.63-8.31,4.11-3.19,1.15-4.84,3.58-5.59,6.75-6.39,16.08,3,29.76,19.75,28.77,3,0,6.13.51,8.22-2.47,4.06-.41,5.75-3.43,7.32-6.6,3.83-3.55,3.36-8.22,3.32-12.78q1.08-6.29,2.14-12.57h0l3.78-6.35h0l3.76-4.29h0l7.67-4.67h0l5.69-1.29h0l10.26,1h0l4.38,1.62h0c7.93,5.09,12.86,11.81,14.63,21.5,1.44,8,5.52,15,14.75,16.9h0c2.79,2.41,5.85,1.33,8.88.71h0L352.4,681h0l4.37-3.54h0c3.63-.79,4.51-3.73,5.29-6.75C368.5,654.86,361.55,643.35,344.72,642Z"/><path class="cls-1" d="M232,596h0a13.48,13.48,0,0,0,12.71,2.22h0a6.4,6.4,0,0,0,6-2.42h0a7.06,7.06,0,0,0,5.81-4.31h0c7.52-7.5,7.14-16.06,2.21-24.35s-12.53-11.46-22.13-8.44c-2.34,0-4.72-.1-6,2.45-2.85.31-4.45,2.12-5.52,4.57-3,3-4.14,6.85-4.34,11C220,585.78,223.71,592.23,232,596Z"/><circle class="cls-1" cx="846.2" cy="514.9" r="61.23"/><path class="cls-2" d="M846.71,595.25a61.36,61.36,0,0,0-61.36,61.36V758.67h-1.78v0a114.06,114.06,0,0,1-116.5-108h.06V402H667V371.93h67.3a41.68,41.68,0,0,0,0-83.36H667V275h.11V134.41a60,60,0,0,0-120,0V636.9H547A234.12,234.12,0,0,0,771.56,878.5c1.44.11,2.9.16,4.37.14,3.14.06,6.28.05,9.42,0v0h50.08a71.48,71.48,0,0,0,71.47-71.48V655.45A60.19,60.19,0,0,0,846.71,595.25Z"/></svg>