<svg id="Layer_1" data-name="Layer 1" xmlns="http://www.w3.org/2000/svg" viewBox="0 0 988.6 960.09"><defs><style>.cls-1,.cls-3{fill:#fff;}.cls-2{fill:#ee392f;}.cls-3{fill-rule:evenodd;}</style></defs><path class="cls-1" d="M471.93,104.9c-30.91,0-56,25.9-56,57.86V445.91h0a217.39,217.39,0,0,0-106.38-27.62C189,418.29,91.19,516.06,91.19,636.66S189,855,309.56,855C430,855,527.63,757.57,527.93,637.22V162.76C527.93,130.8,502.86,104.9,471.93,104.9ZM310.8,754.49A117.28,117.28,0,1,1,428.09,637.22,117.27,117.27,0,0,1,310.8,754.49Z"/><path class="cls-2" d="M252.42,683.48h0c-10.34-.73-17.34,4.07-20.09,13.78A19.79,19.79,0,0,0,242.74,720c8.68,4.18,16.84,1.88,23.67-6.67C275.67,699.46,269,685.18,252.42,683.48Z"/><path class="cls-2" d="M372.48,634.36h0l-7.78-1.06-5.94-1h0c-11.37-4.79-15.54-14-15.88-25.65.52-1.94,1-3.88,1.55-5.82l5.26-8h0l3.23-2.53h0c4.69-2.28,9.41-4.49,14.63-5.35h0c3.16,0,5.44-1.59,7.35-3.91h0c8.92-7.48,10.47-16,4.59-25.17-5.45-8.54-14-11.23-23-7.29-5,1-8.65,3.54-10.28,8.55a16.63,16.63,0,0,0-2.62,11.6c.28,5.64-1.79,10.67-4,15.67l-5.68,6h0l-3.48,2.31h0l-1.88.44c-2.26-.14-4.41.07-6,2h0l-5.06,1a3.39,3.39,0,0,0-3.7,2,8.86,8.86,0,0,0-6.6,6.33c-1.49,1.73-2.42,3.59-1.39,5.92-2.84,4.14-.85,8.75-1.3,13.13q-1.68,4-3.37,8l-4.74,5.56h0l-11.32,5.38h0l-4.75,1h0c-3.42-.41-5.68,1.52-7.75,3.83-3,1.08-4.52,3.34-5.21,6.3-6,15,2.79,27.76,18.42,26.84,2.78,0,5.72.48,7.67-2.31,3.78-.37,5.37-3.19,6.83-6.15,3.57-3.31,3.13-7.67,3.1-11.92q1-5.87,2-11.73h0l3.52-5.92h0l3.51-4h0l7.16-4.36h0l5.3-1.2h0l9.58,1h0l4.08,1.52h0c7.4,4.75,12,11,13.65,20.05,1.35,7.43,5.15,14,13.76,15.77h0c2.59,2.25,5.45,1.24,8.28.66h0l5.45-1h0l4.08-3.3h0c3.38-.74,4.2-3.48,4.93-6.3C394.67,646.38,388.19,635.65,372.48,634.36Z"/><path class="cls-2" d="M267.31,591.5h0a12.58,12.58,0,0,0,11.85,2.07h0a6,6,0,0,0,5.57-2.26h0a6.6,6.6,0,0,0,5.42-4h0c7-7,6.66-15,2.06-22.72s-11.68-10.69-20.64-7.87c-2.18,0-4.4-.09-5.62,2.29-2.66.29-4.15,2-5.14,4.27-2.85,2.83-3.87,6.38-4.05,10.26C256.12,582,259.61,588,267.31,591.5Z"/><circle class="cls-2" cx="840.29" cy="515.83" r="57.12"/><path class="cls-3" d="M840.77,590.78A57.24,57.24,0,0,0,783.53,648v95.2l-1.65,0v0A106.43,106.43,0,0,1,673.19,642.43h.06V410.49h-.1v-28h62.78a38.88,38.88,0,0,0,0-77.76H673.15V292h.1V160.88a56,56,0,0,0-112,0V629.63h0A218.37,218.37,0,0,0,770.67,855c1.35.1,2.71.15,4.08.13,2.93.06,5.85.05,8.78,0v0h46.72a66.69,66.69,0,0,0,66.68-66.68V646.94A56.16,56.16,0,0,0,840.77,590.78Z"/></svg>