<svg id="Layer_1" data-name="Layer 1" xmlns="http://www.w3.org/2000/svg" xmlns:xlink="http://www.w3.org/1999/xlink" viewBox="0 0 2234.13 431.68"><defs><style>.cls-1{fill:#ee392f;}.cls-2{fill:#da1f27;}.cls-3{fill:url(#linear-gradient);}.cls-4{fill:url(#linear-gradient-2);}.cls-5{fill:url(#linear-gradient-3);}</style><linearGradient id="linear-gradient" x1="811.41" y1="278.28" x2="838.32" y2="278.28" gradientUnits="userSpaceOnUse"><stop offset="0" stop-color="#ee392f"/><stop offset="1" stop-color="#f79320"/></linearGradient><linearGradient id="linear-gradient-2" x1="834.77" y1="216.73" x2="921.37" y2="216.73" xlink:href="#linear-gradient"/><linearGradient id="linear-gradient-3" x1="828.71" y1="190.04" x2="855.55" y2="190.04" xlink:href="#linear-gradient"/></defs><path class="cls-1" d="M2097.69,330.9l-95.61-210.56a22.62,22.62,0,0,0-5.74-7.48,31.34,31.34,0,0,0-3-2.27H1993a11.27,11.27,0,0,0-1.23-.69l-.17-.19h-.17c-.12,0-.18,0-.18-.17a11,11,0,0,1-1.57-.52h-.17a18.3,18.3,0,0,0-11.15,0,2.94,2.94,0,0,0-.86.17.17.17,0,0,1-.18.19h-.17a.56.56,0,0,1-.35.16h-.17l-.18.17a.7.7,0,0,0-.53.19.45.45,0,0,1-.33.17l-.19.18a.46.46,0,0,0-.34.17,7.86,7.86,0,0,0-.87.52c-.35.23-.71.46-1,.69H1973c-.33.35-.69.71-1,1.06a18.83,18.83,0,0,0-6.09,7.65l-80,176.17c.59,0,1.17-.05,1.75-.05a42.13,42.13,0,0,1,32.84,15.71L1984,172.42l79.06,174a19,19,0,1,0,34.65-15.51Z"/><path class="cls-1" d="M2153.76,169.91a42.71,42.71,0,0,1-19.64-4.76V338.22a19.14,19.14,0,0,0,5.66,13.93,19.54,19.54,0,0,0,27.69,0,19.1,19.1,0,0,0,5.66-13.93V165.29A42.59,42.59,0,0,1,2153.76,169.91Z"/><path class="cls-2" d="M2097.69,330.9l-95.61-210.56a22.62,22.62,0,0,0-5.74-7.48,31.34,31.34,0,0,0-3-2.27H1993a11.27,11.27,0,0,0-1.23-.69l-.17-.19h-.17c-.12,0-.18,0-.18-.17a11,11,0,0,1-1.57-.52h-.17a18.3,18.3,0,0,0-11.15,0,2.94,2.94,0,0,0-.86.17.17.17,0,0,1-.18.19h-.17a.56.56,0,0,1-.35.16h-.17l-.18.17a.7.7,0,0,0-.53.19.45.45,0,0,1-.33.17l-.19.18a.46.46,0,0,0-.34.17,7.86,7.86,0,0,0-.87.52c-.35.23-.71.46-1,.69H1973c-.33.35-.69.71-1,1.06a18.83,18.83,0,0,0-6.09,7.65l-80,176.17c.59,0,1.17-.05,1.75-.05a42.13,42.13,0,0,1,32.84,15.71L1984,172.42l79.06,174a19,19,0,1,0,34.65-15.51Z"/><path class="cls-2" d="M2153.76,169.91a42.71,42.71,0,0,1-19.64-4.76V338.22a19.14,19.14,0,0,0,5.66,13.93,19.54,19.54,0,0,0,27.69,0,19.1,19.1,0,0,0,5.66-13.93V165.29A42.59,42.59,0,0,1,2153.76,169.91Z"/><path class="cls-3" d="M825.76,265h0c-7.14-.5-12,2.81-13.88,9.51a13.68,13.68,0,0,0,7.2,15.71c6,2.88,11.63,1.3,16.35-4.61C841.82,276,837.2,266.17,825.76,265Z"/><path class="cls-4" d="M908.67,231.08l-5.38-.74-4.1-.72h0c-7.85-3.3-10.73-9.69-11-17.71.36-1.34.71-2.68,1.07-4l3.63-5.55,2.23-1.74h0a37.14,37.14,0,0,1,10.1-3.7h0a6.33,6.33,0,0,0,5.08-2.7c6.15-5.16,7.22-11,3.17-17.38-3.77-5.89-9.65-7.75-15.89-5-3.45.67-6,2.44-7.1,5.9a11.45,11.45,0,0,0-1.81,8c.2,3.89-1.23,7.37-2.76,10.82L882,200.7l-2.4,1.6h0l-1.3.3c-1.56-.1-3,0-4.15,1.34h0l-3.5.72a2.34,2.34,0,0,0-2.55,1.37,6.12,6.12,0,0,0-4.56,4.37c-1,1.2-1.67,2.48-1,4.08-2,2.86-.59,6.05-.89,9.08l-2.33,5.53-3.28,3.84h0l-7.81,3.71h0l-3.27.69h0c-2.36-.28-3.92,1-5.35,2.64a5.59,5.59,0,0,0-3.6,4.36c-4.12,10.35,1.93,19.16,12.71,18.53,1.93,0,4,.33,5.3-1.6h0c2.61-.26,3.71-2.2,4.72-4.24,2.46-2.29,2.16-5.3,2.14-8.24.46-2.7.91-5.39,1.37-8.09h0c.81-1.37,1.63-2.73,2.44-4.09h0l2.42-2.77h0l4.94-3h0l3.66-.83h0l6.61.67h0l2.82,1.05h0a19.84,19.84,0,0,1,9.43,13.85c.93,5.13,3.55,9.69,9.5,10.88h0c1.8,1.55,3.77.86,5.72.46h0l3.77-.68h0l2.81-2.29h0c2.34-.5,2.9-2.4,3.41-4.34C924,239.38,919.51,232,908.67,231.08Z"/><path class="cls-5" d="M836.05,201.48h0a8.7,8.7,0,0,0,8.18,1.43,4.15,4.15,0,0,0,3.84-1.56h0a4.55,4.55,0,0,0,3.75-2.78h0c4.84-4.83,4.6-10.34,1.42-15.68s-8.06-7.38-14.25-5.44c-1.51,0-3-.06-3.88,1.58a4.26,4.26,0,0,0-3.55,2.95,10.13,10.13,0,0,0-2.8,7.08C828.32,194.88,830.73,199,836.05,201.48Z"/><path class="cls-2" d="M825.76,265h0c-7.14-.5-12,2.81-13.88,9.51a13.68,13.68,0,0,0,7.2,15.71c6,2.88,11.63,1.3,16.35-4.61C841.82,276,837.2,266.17,825.76,265Z"/><path class="cls-2" d="M908.67,231.08l-5.38-.74-4.1-.72h0c-7.85-3.3-10.73-9.69-11-17.71.36-1.34.71-2.68,1.07-4l3.63-5.55,2.23-1.74h0a37.14,37.14,0,0,1,10.1-3.7h0a6.33,6.33,0,0,0,5.08-2.7c6.15-5.16,7.22-11,3.17-17.38-3.77-5.89-9.65-7.75-15.89-5-3.45.67-6,2.44-7.1,5.9a11.45,11.45,0,0,0-1.81,8c.2,3.89-1.23,7.37-2.76,10.82L882,200.7l-2.4,1.6h0l-1.3.3c-1.56-.1-3,0-4.15,1.34h0l-3.5.72a2.34,2.34,0,0,0-2.55,1.37,6.12,6.12,0,0,0-4.56,4.37c-1,1.2-1.67,2.48-1,4.08-2,2.86-.59,6.05-.89,9.08l-2.33,5.53-3.28,3.84h0l-7.81,3.71h0l-3.27.69h0c-2.36-.28-3.92,1-5.35,2.64a5.59,5.59,0,0,0-3.6,4.36c-4.12,10.35,1.93,19.16,12.71,18.53,1.93,0,4,.33,5.3-1.6h0c2.61-.26,3.71-2.2,4.72-4.24,2.46-2.29,2.16-5.3,2.14-8.24.46-2.7.91-5.39,1.37-8.09h0c.81-1.37,1.63-2.73,2.44-4.09h0l2.42-2.77h0l4.94-3h0l3.66-.83h0l6.61.67h0l2.82,1.05h0a19.84,19.84,0,0,1,9.43,13.85c.93,5.13,3.55,9.69,9.5,10.88h0c1.8,1.55,3.77.86,5.72.46h0l3.77-.68h0l2.81-2.29h0c2.34-.5,2.9-2.4,3.41-4.34C924,239.38,919.51,232,908.67,231.08Z"/><path class="cls-2" d="M836.05,201.48h0a8.7,8.7,0,0,0,8.18,1.43,4.15,4.15,0,0,0,3.84-1.56h0a4.55,4.55,0,0,0,3.75-2.78h0c4.84-4.83,4.6-10.34,1.42-15.68s-8.06-7.38-14.25-5.44c-1.51,0-3-.06-3.88,1.58a4.26,4.26,0,0,0-3.55,2.95,10.13,10.13,0,0,0-2.8,7.08C828.32,194.88,830.73,199,836.05,201.48Z"/><path d="M145.8,108.39q34.3,0,62.7,16.8a126.85,126.85,0,0,1,45.19,45.2q16.8,28.38,16.81,62.87,0,32.38-15,59.47A126.41,126.41,0,0,1,215.11,337a123.81,123.81,0,0,1-57.47,20.46,22.55,22.55,0,0,1-4,.35h-1.75c-2.09.12-4.12.17-6.09.17H118.89q-13,0-29.69-.17H85.89a19.32,19.32,0,0,1-19.33-19.33V232.73a18.68,18.68,0,0,1,5.74-13.84,19.76,19.76,0,0,1,27.69,0,18.65,18.65,0,0,1,5.75,13.84v86.21q9.58-.17,20.73-.17H145.8a82.27,82.27,0,0,0,42.93-11.58,87.43,87.43,0,0,0,30.91-31,86.37,86.37,0,0,0,0-86.12,87.85,87.85,0,0,0-30.91-31.18,81.78,81.78,0,0,0-42.93-11.67H85.89a19.32,19.32,0,0,1-19.33-19.33,18.8,18.8,0,0,1,5.66-13.84,18.59,18.59,0,0,1,13.67-5.66H145.8Z"/><path d="M324.66,147.75a19.34,19.34,0,0,1-19.33-19.34A18.87,18.87,0,0,1,311,114.66a18.45,18.45,0,0,1,13.67-5.75H454.23a18.45,18.45,0,0,1,13.67,5.75,18.87,18.87,0,0,1,5.66,13.75,19.34,19.34,0,0,1-19.33,19.34ZM454.23,318.94a18.63,18.63,0,0,1,13.67,5.66,18.82,18.82,0,0,1,5.66,13.85,19.32,19.32,0,0,1-19.33,19.33H324.66a19.32,19.32,0,0,1-19.33-19.33V232.56a19.26,19.26,0,0,1,5.74-14A18.85,18.85,0,0,1,325,212.71h46.32a18.83,18.83,0,0,1,13.94,5.83,19.78,19.78,0,0,1,0,27.87,18.83,18.83,0,0,1-13.94,5.83H344.86v66.7Z"/><path d="M643.37,345.94a20.85,20.85,0,0,1-5.75,7.31,13.51,13.51,0,0,1-3,2.27.52.52,0,0,1-.35.17,11,11,0,0,1-1.22.7h-.17c0,.11-.06.17-.18.17h-.17l-1.39.7H631a19.11,19.11,0,0,1-5.74.87,17.53,17.53,0,0,1-5.58-.87,6.5,6.5,0,0,0-.87-.35h-.17a.16.16,0,0,1-.18-.18h-.34l-.18-.17h-.17a1.8,1.8,0,0,1-.53-.35h-.34c0-.11-.06-.17-.18-.17a.48.48,0,0,0-.35-.18,2.22,2.22,0,0,0-.87-.52l-1-.69v-.18a4.5,4.5,0,0,1-1.22-.87,20.62,20.62,0,0,1-6.1-7.66L511.53,135.38a18.91,18.91,0,0,1,9.58-25.08,18.66,18.66,0,0,1,14.45-.43,19,19,0,0,1,10.63,9.84l79.07,174.15,79.06-174.15A19,19,0,0,1,715,109.87a18.66,18.66,0,0,1,14.45.43A18.89,18.89,0,0,1,739,135.38Z"/><path d="M867,108.21q34.49,0,62.78,16.89a128,128,0,0,1,45.11,45.2q16.8,28.3,16.8,62.78t-16.8,62.79A127.15,127.15,0,0,1,929.77,341Q901.46,357.79,867,357.78T804.12,341a126.92,126.92,0,0,1-45.2-45.1q-16.8-28.31-16.8-62.79t16.8-62.78a127.76,127.76,0,0,1,45.2-45.2Q832.5,108.21,867,108.21Zm0,210.38a82.76,82.76,0,0,0,42.93-11.49,87.51,87.51,0,0,0,31-30.91,86,86,0,0,0,0-86.21,88.17,88.17,0,0,0-31-31,85.7,85.7,0,0,0-86,0,88.09,88.09,0,0,0-31,31,86,86,0,0,0,0,86.21,87.43,87.43,0,0,0,31,30.91A83.09,83.09,0,0,0,867,318.59Z"/><path d="M1184.13,143.22q9.93,18.81,9.23,37.44a75.14,75.14,0,0,1-3.48,24.21,68.59,68.59,0,0,1-12.63,23.34,65.17,65.17,0,0,1-23.16,17.59q-14.37,6.78-35.27,6.79l-52.94.35v85.51a19.6,19.6,0,0,1-39.19,0V233.26a20.5,20.5,0,0,1,19.85-20l22.12.17h5q10.62,0,25.26.09t20,.09q14.26,0,23.24-9.58a34.55,34.55,0,0,0,9.5-23h-.18a32.61,32.61,0,0,0-9.14-22.9q-9.15-9.84-23.6-9.84h-50.33l-22.12.17a18.9,18.9,0,0,1-13.93-6,19.52,19.52,0,0,1-5.92-14.19,18.77,18.77,0,0,1,5.74-13.76,19,19,0,0,1,13.94-5.75h19.33l33.61.18h19.68v-.18c2,0,3.83.06,5.57.18q16.54,0,26.74,4.27a51.71,51.71,0,0,1,17.67,12.1,63.38,63.38,0,0,1,13.94,16.2l.87.87A8.91,8.91,0,0,1,1184.13,143.22Z"/><path d="M1377.79,108.39a19.4,19.4,0,0,1,13.85,33.09,18.69,18.69,0,0,1-13.85,5.74h-129.4a18.68,18.68,0,0,1-13.84-5.74,18.91,18.91,0,0,1-5.66-13.76,18.59,18.59,0,0,1,5.66-13.67,18.8,18.8,0,0,1,13.84-5.66ZM1313,213.75a19,19,0,0,1,13.93,5.75,18.78,18.78,0,0,1,5.75,13.76V338.62a18.49,18.49,0,0,1-5.75,13.67A19.1,19.1,0,0,1,1313,358a18.88,18.88,0,0,1-13.76-5.66,18.49,18.49,0,0,1-5.75-13.67V233.26A19.63,19.63,0,0,1,1313,213.75Z"/><path d="M1451.46,147.75a19.34,19.34,0,0,1-19.33-19.34,18.91,18.91,0,0,1,5.66-13.75,18.45,18.45,0,0,1,13.67-5.75H1581a18.47,18.47,0,0,1,13.67,5.75,18.91,18.91,0,0,1,5.66,13.75A19.34,19.34,0,0,1,1581,147.75ZM1581,318.94a18.65,18.65,0,0,1,13.67,5.66,18.86,18.86,0,0,1,5.66,13.85A19.32,19.32,0,0,1,1581,357.78H1451.46a19.32,19.32,0,0,1-19.33-19.33V232.56a19.27,19.27,0,0,1,5.75-14,18.81,18.81,0,0,1,13.93-5.83h46.33a18.83,18.83,0,0,1,13.93,5.83,19.76,19.76,0,0,1,0,27.87,18.83,18.83,0,0,1-13.93,5.83h-26.48v66.7Z"/><path d="M1654.88,106.29a19.62,19.62,0,0,1,19.5,19.51v212a19.62,19.62,0,0,1-19.5,19.51,19,19,0,0,1-13.93-5.75,18.74,18.74,0,0,1-5.75-13.76V125.8A18.74,18.74,0,0,1,1641,112,19,19,0,0,1,1654.88,106.29Zm145.77,218.23a21,21,0,0,1,4.18,15,19.52,19.52,0,0,1-7.49,13.41,20.21,20.21,0,0,1-15,4.27,19.85,19.85,0,0,1-13.41-7.58l-82.72-104.32a19.64,19.64,0,0,1-4.27-14.8,20.45,20.45,0,0,1,7.58-13.58,19.63,19.63,0,0,1,14.8-4.27,20.48,20.48,0,0,1,13.58,7.57Zm-56.08-146.3a19.9,19.9,0,0,1-7.4-13.23,19.21,19.21,0,0,1,4.09-14.46l28.39-36.75a19.94,19.94,0,0,1,13.15-7.4,19.66,19.66,0,0,1,14.54,4.1,19.35,19.35,0,0,1,7.4,13.06,19.58,19.58,0,0,1-3.92,14.45l-28.56,36.75a19.34,19.34,0,0,1-13.06,7.4A20.15,20.15,0,0,1,1744.57,178.22Z"/><path d="M1887.31,357.05a18.16,18.16,0,0,1-13.21-5.42,18.14,18.14,0,0,1,0-26,19.11,19.11,0,0,1,26.5,0,18.3,18.3,0,0,1,0,26A18.07,18.07,0,0,1,1887.31,357.05Z"/><path d="M2153.83,148.43a20,20,0,0,1-14-34.1,19.92,19.92,0,0,1,28.11,28.23A19,19,0,0,1,2153.83,148.43Z"/></svg>