<svg id="Layer_1" data-name="Layer 1" xmlns="http://www.w3.org/2000/svg" xmlns:xlink="http://www.w3.org/1999/xlink" viewBox="0 0 2234.13 431.68"><defs><style>.cls-1{fill:#ee392f;}.cls-2{fill:#da1f27;}.cls-3{fill:url(#linear-gradient);}.cls-4{fill:url(#linear-gradient-2);}.cls-5{fill:url(#linear-gradient-3);}.cls-6{fill:#fff;}</style><linearGradient id="linear-gradient" x1="829.07" y1="258.84" x2="854.18" y2="258.84" gradientUnits="userSpaceOnUse"><stop offset="0" stop-color="#ee392f"/><stop offset="1" stop-color="#f79320"/></linearGradient><linearGradient id="linear-gradient-2" x1="850.86" y1="201.42" x2="931.65" y2="201.42" xlink:href="#linear-gradient"/><linearGradient id="linear-gradient-3" x1="845.21" y1="176.53" x2="870.25" y2="176.53" xlink:href="#linear-gradient"/></defs><path class="cls-1" d="M2029,307.93,1939.8,111.51a21.26,21.26,0,0,0-5.35-7,30.13,30.13,0,0,0-2.76-2.12h-.33a10.77,10.77,0,0,0-1.15-.64l-.16-.17h-.15c-.12,0-.18,0-.18-.16a10.87,10.87,0,0,1-1.46-.49h-.15a17.13,17.13,0,0,0-10.41,0,2.88,2.88,0,0,0-.8.16.15.15,0,0,1-.17.17h-.16a.49.49,0,0,1-.33.16h-.15l-.17.16a.62.62,0,0,0-.49.17.45.45,0,0,1-.32.16l-.17.17a.41.41,0,0,0-.31.15c-.23.12-.5.28-.82.49s-.66.43-1,.65h-.17l-1,1a17.54,17.54,0,0,0-5.68,7.14l-74.62,164.34c.54,0,1.08,0,1.63,0a39.31,39.31,0,0,1,30.64,14.65l59.25-130.36,73.76,162.3A17.71,17.71,0,1,0,2029,307.93Z"/><path class="cls-1" d="M2081.3,157.75a39.76,39.76,0,0,1-18.32-4.44V314.76a17.83,17.83,0,0,0,5.28,13,18.22,18.22,0,0,0,25.83,0,17.83,17.83,0,0,0,5.28-13V153.44A39.76,39.76,0,0,1,2081.3,157.75Z"/><path class="cls-2" d="M2029,307.93,1939.8,111.51a21.26,21.26,0,0,0-5.35-7,30.13,30.13,0,0,0-2.76-2.12h-.33a10.77,10.77,0,0,0-1.15-.64l-.16-.17h-.15c-.12,0-.18,0-.18-.16a10.87,10.87,0,0,1-1.46-.49h-.15a17.13,17.13,0,0,0-10.41,0,2.88,2.88,0,0,0-.8.16.15.15,0,0,1-.17.17h-.16a.49.49,0,0,1-.33.16h-.15l-.17.16a.62.62,0,0,0-.49.17.45.45,0,0,1-.32.16l-.17.17a.41.41,0,0,0-.31.15c-.23.12-.5.28-.82.49s-.66.43-1,.65h-.17l-1,1a17.54,17.54,0,0,0-5.68,7.14l-74.62,164.34c.54,0,1.08,0,1.63,0a39.31,39.31,0,0,1,30.64,14.65l59.25-130.36,73.76,162.3A17.71,17.71,0,1,0,2029,307.93Z"/><path class="cls-2" d="M2081.3,157.75a39.76,39.76,0,0,1-18.32-4.44V314.76a17.83,17.83,0,0,0,5.28,13,18.22,18.22,0,0,0,25.83,0,17.83,17.83,0,0,0,5.28-13V153.44A39.76,39.76,0,0,1,2081.3,157.75Z"/><path class="cls-3" d="M842.46,246.45h0c-6.66-.47-11.17,2.62-13,8.87A12.76,12.76,0,0,0,836.23,270c5.59,2.69,10.85,1.21,15.25-4.3C857.44,256.74,853.13,247.55,842.46,246.45Z"/><path class="cls-4" d="M919.8,214.81l-5-.68-3.83-.68h0c-7.32-3.08-10-9-10.22-16.51l1-3.76,3.39-5.17,2.08-1.63h0a34.06,34.06,0,0,1,9.42-3.45h0a5.9,5.9,0,0,0,4.74-2.52c5.74-4.81,6.74-10.29,3-16.21-3.51-5.5-9-7.24-14.83-4.7-3.21.63-5.57,2.28-6.62,5.51a10.78,10.78,0,0,0-1.69,7.47c.19,3.63-1.15,6.88-2.57,10.1L895,186.47,892.71,188h0l-1.21.29a4.27,4.27,0,0,0-3.87,1.25h0l-3.26.67a2.2,2.2,0,0,0-2.39,1.28,5.7,5.7,0,0,0-4.25,4.08c-1,1.11-1.56,2.31-.89,3.8-1.83,2.67-.55,5.65-.84,8.46L873.83,213l-3.06,3.58h0L863.48,220h0l-3.06.64h0c-2.2-.26-3.65,1-5,2.47a5.24,5.24,0,0,0-3.36,4.06c-3.83,9.66,1.8,17.88,11.87,17.29,1.79,0,3.68.31,4.94-1.49h0c2.44-.24,3.46-2.06,4.4-4,2.3-2.14,2-4.94,2-7.68q.63-3.78,1.28-7.55h0l2.27-3.82h0l2.26-2.58h0l4.61-2.81h0l3.41-.77h0l6.17.62h0l2.63,1h0a18.48,18.48,0,0,1,8.79,12.92c.87,4.78,3.32,9,8.87,10.15h0c1.68,1.45,3.52.8,5.34.43h0l3.51-.64h0l2.63-2.13h0c2.18-.47,2.7-2.24,3.17-4C934.09,222.55,929.92,215.64,919.8,214.81Z"/><path class="cls-5" d="M852.06,187.2h0a8.1,8.1,0,0,0,7.63,1.34,3.86,3.86,0,0,0,3.58-1.46h0a4.25,4.25,0,0,0,3.49-2.59h0c4.52-4.51,4.29-9.65,1.33-14.63s-7.53-6.89-13.3-5.07c-1.4,0-2.84-.07-3.62,1.47a4,4,0,0,0-3.31,2.75,9.49,9.49,0,0,0-2.61,6.61C844.85,181.05,847.09,184.92,852.06,187.2Z"/><path class="cls-2" d="M842.46,246.45h0c-6.66-.47-11.17,2.62-13,8.87A12.76,12.76,0,0,0,836.23,270c5.59,2.69,10.85,1.21,15.25-4.3C857.44,256.74,853.13,247.55,842.46,246.45Z"/><path class="cls-2" d="M919.8,214.81l-5-.68-3.83-.68h0c-7.32-3.08-10-9-10.22-16.51l1-3.76,3.39-5.17,2.08-1.63h0a34.06,34.06,0,0,1,9.42-3.45h0a5.9,5.9,0,0,0,4.74-2.52c5.74-4.81,6.74-10.29,3-16.21-3.51-5.5-9-7.24-14.83-4.7-3.21.63-5.57,2.28-6.62,5.51a10.78,10.78,0,0,0-1.69,7.47c.19,3.63-1.15,6.88-2.57,10.1L895,186.47,892.71,188h0l-1.21.29a4.27,4.27,0,0,0-3.87,1.25h0l-3.26.67a2.2,2.2,0,0,0-2.39,1.28,5.7,5.7,0,0,0-4.25,4.08c-1,1.11-1.56,2.31-.89,3.8-1.83,2.67-.55,5.65-.84,8.46L873.83,213l-3.06,3.58h0L863.48,220h0l-3.06.64h0c-2.2-.26-3.65,1-5,2.47a5.24,5.24,0,0,0-3.36,4.06c-3.83,9.66,1.8,17.88,11.87,17.29,1.79,0,3.68.31,4.94-1.49h0c2.44-.24,3.46-2.06,4.4-4,2.3-2.14,2-4.94,2-7.68q.63-3.78,1.28-7.55h0l2.27-3.82h0l2.26-2.58h0l4.61-2.81h0l3.41-.77h0l6.17.62h0l2.63,1h0a18.48,18.48,0,0,1,8.79,12.92c.87,4.78,3.32,9,8.87,10.15h0c1.68,1.45,3.52.8,5.34.43h0l3.51-.64h0l2.63-2.13h0c2.18-.47,2.7-2.24,3.17-4C934.09,222.55,929.92,215.64,919.8,214.81Z"/><path class="cls-2" d="M852.06,187.2h0a8.1,8.1,0,0,0,7.63,1.34,3.86,3.86,0,0,0,3.58-1.46h0a4.25,4.25,0,0,0,3.49-2.59h0c4.52-4.51,4.29-9.65,1.33-14.63s-7.53-6.89-13.3-5.07c-1.4,0-2.84-.07-3.62,1.47a4,4,0,0,0-3.31,2.75,9.49,9.49,0,0,0-2.61,6.61C844.85,181.05,847.09,184.92,852.06,187.2Z"/><path class="cls-6" d="M208.15,100.36q32,0,58.49,15.68a118.26,118.26,0,0,1,42.16,42.15q15.68,26.49,15.68,58.65a112.79,112.79,0,0,1-14,55.49,117.8,117.8,0,0,1-37.7,41.26,115.36,115.36,0,0,1-53.61,19.09,20.57,20.57,0,0,1-3.74.33h-1.62c-2,.11-3.85.16-5.69.16h-25.1q-12.11,0-27.7-.16h-3.09a18,18,0,0,1-18-18V216.36a17.46,17.46,0,0,1,5.36-12.92,18.43,18.43,0,0,1,25.83,0,17.43,17.43,0,0,1,5.37,12.92v80.42q8.93-.16,19.33-.17h18a76.66,76.66,0,0,0,40-10.8A81.46,81.46,0,0,0,277,256.89a77.11,77.11,0,0,0,10.72-40A77.89,77.89,0,0,0,277,176.55a82,82,0,0,0-28.84-29.08,76.36,76.36,0,0,0-40-10.88H152.26a18,18,0,0,1-18-18,17.56,17.56,0,0,1,5.28-12.91,17.37,17.37,0,0,1,12.75-5.28h55.89Z"/><path class="cls-6" d="M375,137.07a18,18,0,0,1-18-18,17.63,17.63,0,0,1,5.28-12.83A17.23,17.23,0,0,1,375,100.84H495.88a17.23,17.23,0,0,1,12.75,5.37A17.63,17.63,0,0,1,513.91,119a18,18,0,0,1-18,18ZM495.88,296.78a17.37,17.37,0,0,1,12.75,5.28A17.56,17.56,0,0,1,513.91,315a18,18,0,0,1-18,18H375a18,18,0,0,1-18-18V216.19a18,18,0,0,1,5.36-13.07,17.58,17.58,0,0,1,13-5.45h43.21a17.57,17.57,0,0,1,13,5.45,18,18,0,0,1,5.36,13.07,17.75,17.75,0,0,1-5.36,12.92,17.56,17.56,0,0,1-13,5.44H393.85v62.23Z"/><path class="cls-6" d="M672.32,322a19.44,19.44,0,0,1-5.37,6.82,12.41,12.41,0,0,1-2.76,2.12.51.51,0,0,1-.32.16,11.57,11.57,0,0,1-1.14.65h-.16c0,.11-.06.16-.17.16h-.16l-1.3.65h-.16a17.9,17.9,0,0,1-5.36.81,16.37,16.37,0,0,1-5.2-.81,6.72,6.72,0,0,0-.81-.33h-.17a.14.14,0,0,1-.16-.16h-.32l-.17-.16h-.16a1.88,1.88,0,0,1-.49-.33h-.32a.15.15,0,0,0-.16-.16.51.51,0,0,0-.33-.16,2,2,0,0,0-.81-.49l-1-.65v-.16a4.34,4.34,0,0,1-1.14-.81,19.17,19.17,0,0,1-5.69-7.15L549.33,125.54a17.63,17.63,0,0,1,8.93-23.4,17.43,17.43,0,0,1,13.49-.4,17.72,17.72,0,0,1,9.91,9.18l73.76,162.46,73.76-162.46a17.69,17.69,0,0,1,9.91-9.18,17.4,17.4,0,0,1,13.48.4,17.64,17.64,0,0,1,8.94,23.4Z"/><path class="cls-6" d="M880.92,100.19q32.18,0,58.57,15.76a119.43,119.43,0,0,1,42.08,42.16q15.67,26.41,15.67,58.57t-15.67,58.57a118.72,118.72,0,0,1-42.08,42.08Q913.09,333,880.92,333t-58.65-15.68a118.38,118.38,0,0,1-42.16-42.08q-15.68-26.4-15.68-58.57t15.68-58.57A119.09,119.09,0,0,1,822.27,116Q848.74,100.2,880.92,100.19Zm0,196.26A77.16,77.16,0,0,0,921,285.73a81.62,81.62,0,0,0,28.92-28.84,80.25,80.25,0,0,0,0-80.42A82.41,82.41,0,0,0,921,147.55a80,80,0,0,0-80.26,0,82.25,82.25,0,0,0-28.92,28.92,80.25,80.25,0,0,0,0,80.42,81.46,81.46,0,0,0,28.92,28.84A77.45,77.45,0,0,0,880.92,296.45Z"/><path class="cls-6" d="M1176.77,132.85q9.26,17.55,8.61,34.93a69.89,69.89,0,0,1-3.25,22.58,63.7,63.7,0,0,1-11.78,21.77,60.71,60.71,0,0,1-21.61,16.41q-13.4,6.35-32.9,6.34l-49.38.32V315a18.32,18.32,0,0,1-18.2,18.2,17.73,17.73,0,0,1-13-5.36A17.53,17.53,0,0,1,1029.9,315V216.84a19.14,19.14,0,0,1,18.52-18.68l20.63.16h4.72q9.9,0,23.55.09t18.69.08q13.32,0,21.68-8.94a32.2,32.2,0,0,0,8.86-21.44h-.16a30.44,30.44,0,0,0-8.53-21.37q-8.53-9.18-22-9.18h-46.95l-20.63.16a17.63,17.63,0,0,1-13-5.6,18.25,18.25,0,0,1-5.52-13.24A17.51,17.51,0,0,1,1035.1,106a17.7,17.7,0,0,1,13-5.36h18l31.36.16h18.35v-.16c1.84,0,3.58.06,5.2.16q15.43,0,24.94,4a48.25,48.25,0,0,1,16.49,11.29,59.16,59.16,0,0,1,13,15.11c.21.21.49.48.81.81A7,7,0,0,1,1176.77,132.85Z"/><path class="cls-6" d="M1357.43,100.36a18.1,18.1,0,0,1,12.92,30.87,17.46,17.46,0,0,1-12.92,5.36H1236.72a17.46,17.46,0,0,1-12.92-5.36,17.67,17.67,0,0,1-5.28-12.84,17.37,17.37,0,0,1,5.28-12.75,17.58,17.58,0,0,1,12.92-5.28ZM1297,198.65a17.73,17.73,0,0,1,13,5.36,17.51,17.51,0,0,1,5.36,12.83v98.3a17.26,17.26,0,0,1-5.36,12.75,17.85,17.85,0,0,1-13,5.28,17.63,17.63,0,0,1-12.83-5.28,17.22,17.22,0,0,1-5.36-12.75v-98.3A18.3,18.3,0,0,1,1297,198.65Z"/><path class="cls-6" d="M1426.15,137.07a18,18,0,0,1-18-18,17.63,17.63,0,0,1,5.28-12.83,17.23,17.23,0,0,1,12.75-5.37H1547a17.23,17.23,0,0,1,12.75,5.37,17.63,17.63,0,0,1,5.28,12.83,18,18,0,0,1-18,18ZM1547,296.78a17.37,17.37,0,0,1,12.75,5.28,17.56,17.56,0,0,1,5.28,12.91,18,18,0,0,1-18,18H1426.15a18,18,0,0,1-18-18V216.19a18,18,0,0,1,5.36-13.07,17.55,17.55,0,0,1,13-5.45h43.21a17.58,17.58,0,0,1,13,5.45,18,18,0,0,1,5.36,13.07,17.79,17.79,0,0,1-5.36,12.92,17.57,17.57,0,0,1-13,5.44H1445v62.23Z"/><path class="cls-6" d="M1615.91,98.41a18.3,18.3,0,0,1,18.2,18.19V314.32a18.3,18.3,0,0,1-18.2,18.2,17.73,17.73,0,0,1-13-5.36,17.53,17.53,0,0,1-5.36-12.84V116.6a17.51,17.51,0,0,1,5.36-12.83A17.69,17.69,0,0,1,1615.91,98.41ZM1751.9,302a19.58,19.58,0,0,1,3.89,14,18.24,18.24,0,0,1-7,12.51,18.9,18.9,0,0,1-14,4,18.5,18.5,0,0,1-12.51-7.07l-77.18-97.32a18.35,18.35,0,0,1-4-13.8,19.07,19.07,0,0,1,7.06-12.68,18.39,18.39,0,0,1,13.81-4,19.1,19.1,0,0,1,12.67,7.07Zm-52.32-136.47a18.62,18.62,0,0,1-6.9-12.35,17.92,17.92,0,0,1,3.81-13.49L1723,105.39a18.59,18.59,0,0,1,12.26-6.9,18.31,18.31,0,0,1,13.57,3.82,18,18,0,0,1,6.9,12.18,18.28,18.28,0,0,1-3.65,13.49l-26.65,34.28a18,18,0,0,1-12.18,6.9A18.78,18.78,0,0,1,1699.58,165.51Z"/><path class="cls-6" d="M1832.74,332.33a17,17,0,0,1-12.32-5.06,16.91,16.91,0,0,1,0-24.3,17.83,17.83,0,0,1,24.72,0,17.09,17.09,0,0,1,0,24.3A16.91,16.91,0,0,1,1832.74,332.33Z"/><path class="cls-6" d="M2081.36,137.71a18.63,18.63,0,0,1-13.07-31.8,18.58,18.58,0,0,1,26.23,26.32A17.71,17.71,0,0,1,2081.36,137.71Z"/></svg>